<svg xmlns="http://www.w3.org/2000/svg" xmlns:xlink="http://www.w3.org/1999/xlink" viewBox="0 0 1280 720.1">
    <path d="M0 0h1280v720H0z"/>
    <g>
        <defs>
            <path id="a" d="M0 0h1280v720H0z"/>
        </defs>
        <clipPath id="b">
            <use xlink:href="#a" overflow="visible"/>
        </clipPath>
        <g clip-path="url(#b)">
            <g fill="#1A1A1A">
                <path d="M662.1 207c2.8 7.7 11.2 11.7 18.9 8.9 7.7-2.8 11.7-11.2 8.9-18.9-2.8-7.7-11.2-11.7-18.9-8.9-7.7 2.7-11.7 11.2-8.9 18.9z"/>
                <circle cx="684.7" cy="106.4" r="96.1"/>
            </g>
            <g fill="#1A1A1A">
                <path d="M567.3 257.1c6.6 4.8 15.9 3.4 20.7-3.3 4.8-6.6 3.4-15.9-3.3-20.7-6.6-4.8-15.9-3.4-20.7 3.3-4.8 6.7-3.3 15.9 3.3 20.7z"/>
                <path d="M495.7 241.4c33.2 24.1 79.7 16.8 103.8-16.4 24.1-33.2 16.8-79.7-16.4-103.8-33.2-24.1-79.7-16.8-103.8 16.4-24.2 33.2-16.8 79.7 16.4 103.8z"/>
            </g>
            <g fill="#1A1A1A">
                <path d="M805.4 290.5c1.2 8.1 8.8 13.6 16.8 12.4 8.1-1.2 13.6-8.8 12.4-16.8-1.2-8.1-8.8-13.6-16.8-12.4-8.1 1.2-13.6 8.7-12.4 16.8z"/>
                <path d="M777.9 197.7c14.8 98 106.3 165.5 204.3 150.6 98-14.8 165.5-106.3 150.6-204.3-14.7-98-106.2-165.5-204.2-150.7-98 14.9-165.5 106.3-150.7 204.4z"/>
            </g>
            <g fill="none" stroke-miterlimit="10">
                <path stroke="#1A1A1A" stroke-width="4" d="M672 416.3l5-313.7M672 416.3L492.9 100.5M672 416.3l276.5-239.5"/>
                <path stroke="#FFF" stroke-width="2" d="M672 416.3L590.1 105M672 416.3L779.7 30.1M672 416.3l463.2-273.2M672 416.3L119.1 28.8"/>
            </g>
            <g stroke="#4D4D4D" stroke-width="4" stroke-miterlimit="10">
                <circle cx="495.4" cy="292.4" r="14.8"/>
                <path d="M-83.2 112.1c0 175.3 142.1 317.3 317.3 317.3 175.3 0 317.3-142.1 317.3-317.3 0-175.3-142.1-317.3-317.3-317.3-175.2 0-317.3 142-317.3 317.3z"/>
            </g>
            <path fill="none" stroke="#FFF" stroke-width="2" stroke-miterlimit="10" d="M672 416.3L289.9-56.6"/>
            <g stroke="#4D4D4D" stroke-width="4" stroke-miterlimit="10">
                <circle cx="407.8" cy="90" r="14"/>
                <path d="M202.9-8.5c0 69.6 56.4 125.9 125.9 125.9 69.6 0 125.9-56.4 125.9-125.9s-56.4-125.9-125.9-125.9S202.9-78.1 202.9-8.5z"/>
            </g>
            <g stroke="#4D4D4D" stroke-width="4" stroke-miterlimit="10">
                <path d="M592.4 167.5c5 6.4 14.3 7.6 20.8 2.5 6.4-5 7.6-14.3 2.5-20.8-5-6.4-14.3-7.6-20.8-2.5-6.4 5-7.6 14.3-2.5 20.8z"/>
                <circle cx="582.3" cy="64.9" r="96.1"/>
            </g>
            <g stroke="#4D4D4D" stroke-width="4" stroke-miterlimit="10">
                <path d="M722.3 190.7c3.7 7.3 12.6 10.2 19.9 6.5 7.3-3.7 10.2-12.6 6.5-19.9-3.7-7.3-12.6-10.2-19.9-6.5-7.3 3.7-10.2 12.6-6.5 19.9z"/>
                <circle cx="779.7" cy="30.1" r="160.3"/>
            </g>
            <g stroke="#4D4D4D" stroke-width="4" stroke-miterlimit="10">
                <circle cx="892.7" cy="287.2" r="14.8"/>
                <circle cx="1138.4" cy="136.6" r="288"/>
            </g>
            <path fill="none" stroke="#FFF" stroke-width="2" stroke-miterlimit="10" d="M672 416.3l356.8-401.7"/>
            <g stroke="#4D4D4D" stroke-width="4" stroke-miterlimit="10">
                <path d="M917.6 119.5c-2.4 7.8 2.1 16.1 9.9 18.5 7.8 2.4 16.1-2.1 18.5-9.9 2.4-7.8-2.1-16.1-9.9-18.5-7.9-2.4-16.1 2-18.5 9.9z"/>
                <path d="M890.1-26.2c-23.2 76.6 20.1 157.5 96.7 180.7 76.6 23.2 157.5-20.1 180.7-96.7 23.2-76.6-20.1-157.5-96.7-180.7-76.7-23.2-157.5 20.1-180.7 96.7z"/>
            </g>
            <path fill="none" stroke="#FFF" stroke-width="5" stroke-miterlimit="10" d="M671.9 414.1v306"/>
        </g>
    </g>
    <g>
        <text transform="translate(91.16 183.625)">
            <tspan x="0" y="0" fill="#FFF" font-family="'DIN-Bold'" font-size="30" letter-spacing="3">SPOKEHUB</tspan><tspan x="178.3" y="0" fill="#FFF" font-family="'DIN-Light'" font-size="30" letter-spacing="3"> STARTS </tspan><tspan x="0" y="35" fill="#FFF" font-family="'DIN-Light'" font-size="30" letter-spacing="3">WITH KNOWLEDGE </tspan><tspan x="0" y="70" fill="#FFF" font-family="'DIN-Light'" font-size="30" letter-spacing="3">(NOT GUESS-LEDGE), </tspan><tspan x="0" y="105" fill="#FFF" font-family="'DIN-Light'" font-size="30" letter-spacing="3">SO ALL OUR WORK IS </tspan><tspan x="0" y="140" fill="#FFF" font-family="'DIN-Light'" font-size="30" letter-spacing="3">GROUNDED IN TRUTH.</tspan>
        </text>
    </g>
    <g>
        <text transform="translate(91.16 129.625)">
            <tspan x="0" y="0" fill="gray" font-family="'DIN-Light'" font-size="72" letter-spacing="-4">0</tspan><tspan x="32.7" y="0" fill="gray" font-family="'DIN-Light'" font-size="72" letter-spacing="7">1</tspan>
        </text>
    </g>
</svg>
