<svg xmlns="http://www.w3.org/2000/svg" xmlns:xlink="http://www.w3.org/1999/xlink" viewBox="0 0 1280 720">
    <path d="M0 0h1280v720H0z"/>
    <defs>
        <path id="a" d="M0 0h1280v720H0z"/>
    </defs>
    <use xlink:href="#a" overflow="visible"/>
    <defs>
        <path id="b" d="M0 0h1280v720H0z"/>
    </defs>
    <clipPath id="c">
        <use xlink:href="#b" overflow="visible"/>
    </clipPath>
    <g clip-path="url(#c)">
        <path fill="#FFF" d="M0 494.6v-15.4c32.7 0 63.5-12.7 86.6-35.8 23.1-23.1 35.8-53.8 35.8-86.6h15.4c0 36.8-14.3 71.4-40.3 97.4-26.1 26.1-60.7 40.4-97.5 40.4z"/>
        <path fill="#FFF" d="M0 474.2v-15.4c56.2 0 101.9-45.7 101.9-101.9h15.4c0 64.6-52.6 117.3-117.3 117.3z"/>
        <path fill="#FFF" d="M0 453.5v-15.4c21.8 0 42.2-8.4 57.5-23.8 15.3-15.3 23.8-35.8 23.8-57.5h15.4c0 25.9-10 50.2-28.3 68.4-18.2 18.3-42.5 28.3-68.4 28.3z"/>
    </g>
    <g clip-path="url(#c)">
        <path fill="#FFF" d="M219.1 438.2v15.4c-32.7 0-63.5 12.7-86.6 35.8-23.1 23.1-35.8 53.8-35.8 86.6H81.4c0-36.8 14.3-71.4 40.3-97.4 26-26.1 60.6-40.4 97.4-40.4z"/>
        <path fill="#FFF" d="M219.1 458.6V474c-56.2 0-101.9 45.7-101.9 101.9h-15.4c0-64.6 52.6-117.3 117.3-117.3z"/>
        <path fill="#FFF" d="M219.1 479.3v15.4c-21.8 0-42.2 8.4-57.5 23.8-15.3 15.3-23.8 35.8-23.8 57.5h-15.4c0-25.9 10-50.2 28.3-68.4 18.2-18.3 42.5-28.3 68.4-28.3z"/>
    </g>
    <g clip-path="url(#c)">
        <path fill="#FFF" d="M0 719.4V704c32.7 0 63.5-12.7 86.6-35.8 23.1-23.1 35.8-53.8 35.8-86.6h15.4c0 36.8-14.3 71.4-40.3 97.4-26.1 26.1-60.7 40.4-97.5 40.4z"/>
        <path fill="#FFF" d="M0 699v-15.4c56.2 0 101.9-45.7 101.9-101.9h15.4C117.3 646.3 64.7 699 0 699z"/>
        <path fill="#FFF" d="M0 678.3V663c21.8 0 42.2-8.4 57.5-23.8 15.3-15.3 23.8-35.8 23.8-57.5h15.4c0 25.9-10 50.2-28.3 68.4-18.2 18.2-42.5 28.2-68.4 28.2z"/>
    </g>
    <g clip-path="url(#c)">
        <path fill="#FFF" d="M219.1 663v15.4c-32.7 0-63.5 12.7-86.6 35.8-23.1 23.1-35.8 53.8-35.8 86.6H81.4c0-36.8 14.3-71.4 40.3-97.4 26-26.1 60.6-40.4 97.4-40.4z"/>
        <path fill="#FFF" d="M219.1 683.4v15.4c-56.2 0-101.9 45.7-101.9 101.9h-15.4c0-64.7 52.6-117.3 117.3-117.3z"/>
        <path fill="#FFF" d="M219.1 704.1v15.4c-21.8 0-42.2 8.4-57.5 23.8-15.3 15.3-23.8 35.8-23.8 57.5h-15.4c0-25.9 10-50.2 28.3-68.4 18.2-18.3 42.5-28.3 68.4-28.3z"/>
    </g>
    <g clip-path="url(#c)">
        <path fill="#FFF" d="M137.7 800.7h-15.4c0-32.7-12.7-63.5-35.8-86.6-23-23-53.8-35.7-86.5-35.7V663c36.8 0 71.4 14.3 97.4 40.3 26 26 40.3 60.6 40.3 97.4z"/>
        <path fill="#FFF" d="M117.3 800.7h-15.4c0-56.2-45.7-101.9-101.9-101.9v-15.4c64.7 0 117.3 52.6 117.3 117.3z"/>
        <path fill="#FFF" d="M96.7 800.7H81.3c0-21.8-8.4-42.2-23.8-57.5-15.3-15.3-35.7-23.8-57.5-23.8V704c25.9 0 50.2 10 68.4 28.3 18.2 18.3 28.3 42.5 28.3 68.4z"/>
    </g>
    <g clip-path="url(#c)">
        <path fill="#FFF" d="M81.4 581.7h15.4c0 32.7 12.7 63.5 35.8 86.6 23.1 23.1 53.8 35.8 86.6 35.8v15.4c-36.8 0-71.4-14.3-97.4-40.3-26.1-26.1-40.4-60.7-40.4-97.5z"/>
        <path fill="#FFF" d="M101.8 581.7h15.4c0 56.2 45.7 101.9 101.9 101.9V699c-64.7-.1-117.3-52.7-117.3-117.3z"/>
        <path fill="#FFF" d="M122.4 581.7h15.4c0 21.8 8.4 42.2 23.8 57.5 15.3 15.3 35.8 23.8 57.5 23.8v15.4c-25.9 0-50.2-10-68.4-28.3-18.2-18.3-28.3-42.6-28.3-68.4z"/>
    </g>
    <g clip-path="url(#c)">
        <path fill="gray" d="M812 147h-15.4c0-32.7-12.7-63.5-35.8-86.6-23.1-23.1-53.8-35.8-86.6-35.8V9.2c36.8 0 71.4 14.3 97.4 40.3 26.1 26 40.4 60.6 40.4 97.5z"/>
        <path fill="gray" d="M791.6 147h-15.4c0-56.2-45.7-102-101.9-102V29.7c64.7 0 117.3 52.6 117.3 117.3z"/>
        <path fill="gray" d="M771 147h-15.4c0-21.8-8.4-42.2-23.8-57.5-15.3-15.3-35.8-23.8-57.5-23.8V50.3c25.9 0 50.2 10 68.4 28.3C760.9 96.8 771 121.1 771 147z"/>
    </g>
    <g clip-path="url(#c)">
        <path fill="#CBCBCB" d="M688.9 213v15.4c-32.7 0-63.5 12.7-86.6 35.8-23.1 23.1-35.8 53.8-35.8 86.6h-15.4c0-36.8 14.3-71.4 40.3-97.4 26.1-26.1 60.7-40.4 97.5-40.4z"/>
        <path fill="#CBCBCB" d="M688.9 233.5v15.4c-56.2 0-101.9 45.7-101.9 101.9h-15.4c0-64.7 52.7-117.3 117.3-117.3z"/>
        <path fill="#CBCBCB" d="M688.9 254.1v15.4c-21.8 0-42.2 8.4-57.5 23.8-15.3 15.3-23.8 35.8-23.8 57.5h-15.4c0-25.9 10-50.2 28.3-68.4 18.3-18.3 42.5-28.3 68.4-28.3z"/>
    </g>
    <g clip-path="url(#c)">
        <path fill="#1A1A1A" d="M1129.3 454v-15.4c32.7 0 63.5-12.7 86.6-35.8 23.1-23.1 35.8-53.8 35.8-86.6h15.4c0 36.8-14.3 71.4-40.3 97.4-26.1 26.1-60.7 40.4-97.5 40.4z"/>
        <path fill="#1A1A1A" d="M1129.3 433.5v-15.4c56.2 0 101.9-45.7 101.9-101.9h15.4c-.1 64.7-52.7 117.3-117.3 117.3z"/>
        <path fill="#1A1A1A" d="M1129.3 412.9v-15.4c21.8 0 42.2-8.4 57.5-23.8 15.3-15.3 23.8-35.8 23.8-57.5h15.4c0 25.9-10 50.2-28.3 68.4-18.3 18.3-42.6 28.3-68.4 28.3z"/>
    </g>
    <g clip-path="url(#c)">
        <path fill="#1A1A1A" d="M976.6 561.3H992c0 32.7 12.7 63.5 35.8 86.6 23.1 23.1 53.8 35.8 86.6 35.8V699c-36.8 0-71.4-14.3-97.4-40.3-26.1-26-40.4-60.6-40.4-97.4z"/>
        <path fill="#1A1A1A" d="M997 561.3h15.4c0 56.2 45.7 101.9 101.9 101.9v15.4c-64.7-.1-117.3-52.7-117.3-117.3z"/>
        <path fill="#1A1A1A" d="M1017.7 561.3h15.4c0 21.8 8.4 42.2 23.8 57.5 15.3 15.3 35.8 23.8 57.5 23.8V658c-25.9 0-50.2-10-68.4-28.3-18.3-18.3-28.3-42.6-28.3-68.4z"/>
    </g>
    <g clip-path="url(#c)">
        <path fill="#1A1A1A" d="M1298.3-65.6v15.4c-32.7 0-63.5 12.7-86.6 35.8-23.1 23.1-35.8 53.8-35.8 86.6h-15.4c0-36.8 14.3-71.4 40.3-97.4 26.1-26.1 60.7-40.4 97.5-40.4z"/>
        <path fill="#1A1A1A" d="M1298.3-45.1v15.4c-56.2 0-101.9 45.7-101.9 101.9H1181c0-64.7 52.6-117.3 117.3-117.3z"/>
        <path fill="#1A1A1A" d="M1298.3-24.5v15.4c-21.8 0-42.2 8.4-57.5 23.8-15.3 15.3-23.8 35.8-23.8 57.5h-15.4c0-25.9 10-50.2 28.3-68.4 18.2-18.3 42.5-28.3 68.4-28.3z"/>
    </g>
    <g clip-path="url(#c)">
        <path fill="#1A1A1A" d="M1051.2-11.5V3.9c-32.7 0-63.5 12.7-86.6 35.8-23.1 23.1-35.8 53.8-35.8 86.6h-15.4c0-36.8 14.3-71.4 40.3-97.4 26.1-26 60.7-40.4 97.5-40.4z"/>
        <path fill="#1A1A1A" d="M1051.2 9v15.4c-56.2 0-101.9 45.7-101.9 101.9H934C934 61.6 986.6 9 1051.2 9z"/>
        <path fill="#1A1A1A" d="M1051.2 29.6V45c-21.8 0-42.2 8.4-57.5 23.8-15.3 15.3-23.8 35.8-23.8 57.5h-15.4c0-25.9 10-50.2 28.3-68.4 18.3-18.2 42.6-28.3 68.4-28.3z"/>
    </g>
    <g clip-path="url(#c)">
        <path fill="#1A1A1A" d="M954.4 126.3h15.4c0 32.7 12.7 63.5 35.8 86.6 23.1 23.1 53.8 35.8 86.6 35.8V264c-36.8 0-71.4-14.3-97.4-40.3-26.1-26-40.4-60.6-40.4-97.4z"/>
        <path fill="#1A1A1A" d="M974.9 126.3h15.4c0 56.2 45.7 101.9 101.9 101.9v15.4c-64.7-.1-117.3-52.7-117.3-117.3z"/>
        <path fill="#1A1A1A" d="M995.5 126.3h15.4c0 21.8 8.4 42.2 23.8 57.5 15.3 15.3 35.8 23.8 57.5 23.8V223c-25.9 0-50.2-10-68.4-28.3-18.3-18.3-28.3-42.6-28.3-68.4z"/>
    </g>
    <g clip-path="url(#c)">
        <path fill="#FFF" d="M305.6 582.3H321c0 32.7 12.7 63.5 35.8 86.6 23.1 23.1 53.8 35.8 86.6 35.8V720c-36.8 0-71.4-14.3-97.4-40.3-26.1-26-40.4-60.6-40.4-97.4z"/>
        <path fill="#FFF" d="M326.1 582.3h15.4c0 56.2 45.7 101.9 101.9 101.9v15.4c-64.7-.1-117.3-52.7-117.3-117.3z"/>
        <path fill="#FFF" d="M346.7 582.3H362c0 21.8 8.4 42.2 23.8 57.5 15.3 15.3 35.8 23.8 57.5 23.8V679c-25.9 0-50.2-10-68.4-28.3-18.2-18.3-28.2-42.6-28.2-68.4z"/>
    </g>
    <g clip-path="url(#c)">
        <path fill="#4D4D4D" d="M832.7 534.8h-15.4c0-32.7-12.7-63.5-35.8-86.6-23.1-23.1-53.8-35.8-86.6-35.8V397c36.8 0 71.4 14.3 97.4 40.3 26.1 26.1 40.4 60.7 40.4 97.5z"/>
        <path fill="#4D4D4D" d="M812.3 534.8h-15.4c0-56.2-45.7-101.9-101.9-101.9v-15.4c64.7.1 117.3 52.7 117.3 117.3z"/>
        <path fill="#4D4D4D" d="M791.7 534.8h-15.4c0-21.8-8.4-42.2-23.8-57.5-15.3-15.3-35.8-23.8-57.5-23.8v-15.4c25.9 0 50.2 10 68.4 28.3 18.2 18.3 28.3 42.6 28.3 68.4z"/>
    </g>
    <g clip-path="url(#c)">
        <path fill="#333" d="M913.6 212.8v15.4c-32.7 0-63.5 12.7-86.6 35.8-23.1 23.1-35.8 53.8-35.8 86.6h-15.4c0-36.8 14.3-71.4 40.3-97.4 26.1-26.1 60.7-40.4 97.5-40.4z"/>
        <path fill="#333" d="M913.6 233.3v15.4c-56.2 0-101.9 45.7-101.9 101.9h-15.4c.1-64.7 52.7-117.3 117.3-117.3z"/>
        <path fill="#333" d="M913.6 253.9v15.4c-21.8 0-42.2 8.4-57.5 23.8-15.3 15.3-23.8 35.8-23.8 57.5H817c0-25.9 10-50.2 28.3-68.4 18.2-18.3 42.5-28.3 68.3-28.3z"/>
    </g>
    <g clip-path="url(#c)">
        <path fill="#333" d="M991.5 357.3h15.4c0 32.7 12.7 63.5 35.8 86.6 23.1 23.1 53.8 35.8 86.6 35.8V495c-36.8 0-71.4-14.3-97.4-40.3-26.1-26-40.4-60.6-40.4-97.4z"/>
        <path fill="#333" d="M1011.9 357.3h15.4c0 56.2 45.7 101.9 101.9 101.9v15.4c-64.7 0-117.3-52.6-117.3-117.3z"/>
        <path fill="#333" d="M1032.5 357.3h15.4c0 21.8 8.4 42.2 23.8 57.5 15.3 15.3 35.8 23.8 57.5 23.8V454c-25.9 0-50.2-10-68.4-28.3-18.2-18.2-28.3-42.5-28.3-68.4z"/>
    </g>
    <g clip-path="url(#c)">
        <path fill="#989898" d="M832.3 350.7h-15.4c0-32.7-12.7-63.5-35.8-86.6-23.1-23.1-53.8-35.8-86.6-35.8V213c36.8 0 71.4 14.3 97.4 40.3 26.1 26 40.4 60.6 40.4 97.4z"/>
        <path fill="#989898" d="M811.9 350.7h-15.4c0-56.2-45.7-101.9-101.9-101.9v-15.4c64.6.1 117.3 52.7 117.3 117.3z"/>
        <path fill="#989898" d="M791.2 350.7h-15.4c0-21.8-8.4-42.2-23.8-57.5-15.3-15.3-35.8-23.8-57.5-23.8V254c25.9 0 50.2 10 68.4 28.3 18.3 18.3 28.3 42.6 28.3 68.4z"/>
    </g>
    <g clip-path="url(#c)">
        <path fill="#FFF" d="M137.7 575.9h-15.4c0-32.7-12.7-63.5-35.8-86.6-23-23-53.8-35.7-86.5-35.7v-15.4c36.8 0 71.4 14.3 97.4 40.3 26 26 40.3 60.6 40.3 97.4z"/>
        <path fill="#FFF" d="M117.3 575.9h-15.4C101.9 519.7 56.2 474 0 474v-15.4c64.7 0 117.3 52.7 117.3 117.3z"/>
        <path fill="#FFF" d="M96.7 575.9H81.3c0-21.8-8.4-42.2-23.8-57.5-15.3-15.3-35.7-23.8-57.5-23.8v-15.4c25.9 0 50.2 10 68.4 28.3 18.2 18.3 28.3 42.5 28.3 68.4z"/>
    </g>
    <g clip-path="url(#c)">
        <path fill="#FFF" d="M305.4 356.9h15.4c0 32.7 12.7 63.5 35.8 86.6 23.1 23.1 53.8 35.8 86.6 35.8v15.4c-36.8 0-71.4-14.3-97.4-40.3-26.1-26.1-40.4-60.7-40.4-97.5z"/>
        <path fill="#FFF" d="M325.9 356.9h15.4c0 56.2 45.7 101.9 101.9 101.9v15.4c-64.7 0-117.3-52.7-117.3-117.3z"/>
        <path fill="#FFF" d="M346.5 356.9h15.4c0 21.8 8.4 42.2 23.8 57.5 15.3 15.3 35.8 23.8 57.5 23.8v15.4c-25.9 0-50.2-10-68.4-28.3-18.3-18.3-28.3-42.5-28.3-68.4z"/>
    </g>
    <g clip-path="url(#c)">
        <path fill="#FFF" d="M81.4 356.9h15.4c0 32.7 12.7 63.5 35.8 86.6 23.1 23.1 53.8 35.8 86.6 35.8v15.4c-36.8 0-71.4-14.3-97.4-40.3-26.1-26.1-40.4-60.7-40.4-97.5z"/>
        <path fill="#FFF" d="M101.8 356.9h15.4c0 56.2 45.7 101.9 101.9 101.9v15.4c-64.7 0-117.3-52.7-117.3-117.3z"/>
        <path fill="#FFF" d="M122.4 356.9h15.4c0 21.8 8.4 42.2 23.8 57.5 15.3 15.3 35.8 23.8 57.5 23.8v15.4c-25.9 0-50.2-10-68.4-28.3-18.2-18.3-28.3-42.5-28.3-68.4z"/>
    </g>
    <g clip-path="url(#c)">
        <path fill="#FFF" d="M0 45.1V29.7c32.7 0 63.5-12.7 86.6-35.8 23.1-23.1 35.8-53.8 35.8-86.6h15.4c0 36.8-14.3 71.4-40.3 97.4C71.4 30.8 36.8 45.1 0 45.1z"/>
        <path fill="#FFF" d="M0 24.6V9.3c56.2 0 101.9-45.7 101.9-101.9h15.4C117.3-28 64.7 24.6 0 24.6z"/>
        <path fill="#FFF" d="M0 4v-15.4c21.8 0 42.2-8.4 57.5-23.8C72.8-50.5 81.3-71 81.3-92.7h15.4c0 25.9-10 50.2-28.3 68.4C50.2-6 25.9 4 0 4z"/>
    </g>
    <g clip-path="url(#c)">
        <path fill="#FFF" d="M219.1-11.3V4c-32.7 0-63.5 12.7-86.6 35.8-23.1 23.1-35.8 53.8-35.8 86.6H81.4c0-36.8 14.3-71.4 40.3-97.4 26-26 60.6-40.3 97.4-40.3z"/>
        <path fill="#FFF" d="M219.1 9.1v15.4c-56.2 0-101.9 45.7-101.9 101.9h-15.4c0-64.7 52.6-117.3 117.3-117.3z"/>
        <path fill="#FFF" d="M219.1 29.8v15.4c-21.8 0-42.2 8.4-57.5 23.8-15.3 15.3-23.8 35.8-23.8 57.5h-15.4c0-25.9 10-50.2 28.3-68.4 18.2-18.3 42.5-28.3 68.4-28.3z"/>
    </g>
    <g clip-path="url(#c)">
        <path fill="#FFF" d="M0 269.9v-15.4c32.7 0 63.5-12.7 86.6-35.8 23.1-23.1 35.8-53.8 35.8-86.6h15.4c0 36.8-14.3 71.4-40.3 97.4-26.1 26.1-60.7 40.4-97.5 40.4z"/>
        <path fill="#FFF" d="M0 249.4V234c56.2 0 101.9-45.7 101.9-101.9h15.4c0 64.7-52.6 117.3-117.3 117.3z"/>
        <path fill="#FFF" d="M0 228.8v-15.4c21.8 0 42.2-8.4 57.5-23.8 15.3-15.3 23.8-35.8 23.8-57.5h15.4c0 25.9-10 50.2-28.3 68.4-18.2 18.3-42.5 28.3-68.4 28.3z"/>
    </g>
    <g clip-path="url(#c)">
        <path fill="#FFF" d="M219.1 213.5v15.4c-32.7 0-63.5 12.7-86.6 35.8-23.1 23.1-35.8 53.8-35.8 86.6H81.4c0-36.8 14.3-71.4 40.3-97.4 26-26.1 60.6-40.4 97.4-40.4z"/>
        <path fill="#FFF" d="M219.1 233.9v15.4c-56.2 0-101.9 45.7-101.9 101.9h-15.4c0-64.7 52.6-117.3 117.3-117.3z"/>
        <path fill="#FFF" d="M219.1 254.5v15.4c-21.8 0-42.2 8.4-57.5 23.8-15.3 15.3-23.8 35.8-23.8 57.5h-15.4c0-25.9 10-50.2 28.3-68.4 18.2-18.2 42.5-28.3 68.4-28.3z"/>
    </g>
    <g clip-path="url(#c)">
        <path fill="#FFF" d="M137.7 351.2h-15.4c0-32.7-12.7-63.5-35.8-86.6-23-23-53.8-35.8-86.5-35.8v-15.4c36.8 0 71.4 14.3 97.4 40.3 26 26.1 40.3 60.7 40.3 97.5z"/>
        <path fill="#FFF" d="M117.3 351.2h-15.4C101.9 295 56.2 249.3 0 249.3v-15.4c64.7 0 117.3 52.6 117.3 117.3z"/>
        <path fill="#FFF" d="M96.7 351.2H81.3c0-21.8-8.4-42.2-23.8-57.5-15.3-15.3-35.7-23.8-57.5-23.8v-15.4c25.9 0 50.2 10 68.4 28.3 18.2 18.2 28.3 42.5 28.3 68.4z"/>
    </g>
    <g clip-path="url(#c)">
        <path fill="#FFF" d="M81.4 132.2h15.4c0 32.7 12.7 63.5 35.8 86.6 23.1 23.1 53.8 35.8 86.6 35.8V270c-36.8 0-71.4-14.3-97.4-40.3-26.1-26.1-40.4-60.7-40.4-97.5z"/>
        <path fill="#FFF" d="M101.8 132.2h15.4c0 56.2 45.7 101.9 101.9 101.9v15.4c-64.7-.1-117.3-52.7-117.3-117.3z"/>
        <path fill="#FFF" d="M122.4 132.2h15.4c0 21.8 8.4 42.2 23.8 57.5 15.3 15.3 35.8 23.8 57.5 23.8v15.4c-25.9 0-50.2-10-68.4-28.3-18.2-18.3-28.3-42.6-28.3-68.4z"/>
    </g>
    <g clip-path="url(#c)">
        <path fill="#FFF" d="M137.7 126.4h-15.4c0-32.7-12.7-63.5-35.8-86.6C63.5 16.8 32.7 4 0 4v-15.4C36.8-11.3 71.4 3 97.4 29s40.3 60.6 40.3 97.4z"/>
        <path fill="#FFF" d="M117.3 126.4h-15.4C101.9 70.2 56.2 24.5 0 24.5V9.1c64.7 0 117.3 52.6 117.3 117.3z"/>
        <path fill="#FFF" d="M96.7 126.4H81.3c0-21.8-8.4-42.2-23.8-57.5C42.2 53.6 21.8 45.1 0 45.1V29.8c25.9 0 50.2 10 68.4 28.3 18.2 18.1 28.3 42.4 28.3 68.3z"/>
    </g>
    <g clip-path="url(#c)">
        <path fill="#FFF" d="M81.4-92.6h15.4c0 32.7 12.7 63.5 35.8 86.6 23.1 23.1 53.8 35.8 86.6 35.8v15.4c-36.8 0-71.4-14.3-97.4-40.3-26.1-26.1-40.4-60.7-40.4-97.5z"/>
        <path fill="#FFF" d="M101.8-92.6h15.4c0 56.2 45.7 101.9 101.9 101.9v15.4C154.4 24.6 101.8-28 101.8-92.6z"/>
        <path fill="#FFF" d="M122.4-92.6h15.4c0 21.8 8.4 42.2 23.8 57.5 15.3 15.3 35.8 23.8 57.5 23.8V4c-25.9 0-50.2-10-68.4-28.3-18.2-18.2-28.3-42.5-28.3-68.3z"/>
    </g>
    <g clip-path="url(#c)">
        <path fill="#FFF" d="M224.8 494.6v-15.4c32.7 0 63.5-12.7 86.6-35.8 23.1-23.1 35.8-53.8 35.8-86.6h15.4c0 36.8-14.3 71.4-40.3 97.4-26 26.1-60.6 40.4-97.5 40.4z"/>
        <path fill="#FFF" d="M224.8 474.2v-15.4c56.2 0 101.9-45.7 101.9-101.9h15.4c0 64.6-52.6 117.3-117.3 117.3z"/>
        <path fill="#FFF" d="M224.8 453.5v-15.4c21.8 0 42.2-8.4 57.5-23.8 15.3-15.3 23.8-35.8 23.8-57.5h15.4c0 25.9-10 50.2-28.3 68.4-18.2 18.3-42.5 28.3-68.4 28.3z"/>
    </g>
    <g clip-path="url(#c)">
        <path fill="#FFF" d="M443.9 438.2v15.4c-32.7 0-63.5 12.7-86.6 35.8-23.1 23.1-35.8 53.8-35.8 86.6h-15.4c0-36.8 14.3-71.4 40.3-97.4 26.1-26.1 60.7-40.4 97.5-40.4z"/>
        <path fill="#FFF" d="M443.9 458.6V474C387.7 474 342 519.7 342 575.9h-15.4c0-64.6 52.7-117.3 117.3-117.3z"/>
        <path fill="#FFF" d="M443.9 479.3v15.4c-21.8 0-42.2 8.4-57.5 23.8-15.3 15.3-23.8 35.8-23.8 57.5h-15.4c0-25.9 10-50.2 28.3-68.4 18.3-18.3 42.5-28.3 68.4-28.3z"/>
    </g>
    <g clip-path="url(#c)">
        <path fill="#666" d="M910.2 495v-15.4c32.7 0 63.5-12.7 86.6-35.8 23.1-23.1 35.8-53.8 35.8-86.6h15.4c0 36.8-14.3 71.4-40.3 97.4-26.1 26.1-60.7 40.4-97.5 40.4z"/>
        <path fill="#666" d="M910.2 474.6v-15.4c56.2 0 101.9-45.7 101.9-101.9h15.4c-.1 64.6-52.7 117.3-117.3 117.3z"/>
        <path fill="#666" d="M910.2 453.9v-15.4c21.8 0 42.2-8.4 57.5-23.8 15.3-15.3 23.8-35.8 23.8-57.5h15.4c0 25.9-10 50.2-28.3 68.4-18.3 18.3-42.6 28.3-68.4 28.3z"/>
    </g>
    <g clip-path="url(#c)">
        <path fill="#B2B2B2" d="M934.7 397.1v15.4c-32.7 0-63.5 12.7-86.6 35.8-23.1 23.1-35.8 53.8-35.8 86.6H797c0-36.8 14.3-71.4 40.3-97.4 26-26.1 60.6-40.4 97.4-40.4z"/>
        <path fill="#B2B2B2" d="M934.7 417.5v15.4c-56.2 0-101.9 45.7-101.9 101.9h-15.4c0-64.7 52.6-117.3 117.3-117.3z"/>
        <path fill="#B2B2B2" d="M934.7 438.1v15.4c-21.8 0-42.2 8.4-57.5 23.8-15.3 15.3-23.8 35.8-23.8 57.5H838c0-25.9 10-50.2 28.3-68.4 18.2-18.2 42.5-28.3 68.4-28.3z"/>
    </g>
    <g clip-path="url(#c)">
        <path fill="#FFF" d="M709.6 621.7v15.4c-32.7 0-63.5 12.7-86.6 35.8-23.1 23.1-35.8 53.8-35.8 86.6h-15.4c0-36.8 14.3-71.4 40.3-97.4 26-26 60.6-40.4 97.5-40.4z"/>
        <path fill="#FFF" d="M709.6 642.2v15.4c-56.2 0-101.9 45.7-101.9 101.9h-15.4c0-64.7 52.6-117.3 117.3-117.3z"/>
        <path fill="#FFF" d="M709.6 662.8v15.4c-21.8 0-42.2 8.4-57.5 23.8-15.3 15.3-23.8 35.8-23.8 57.5h-15.4c0-25.9 10-50.2 28.3-68.4 18.2-18.2 42.5-28.3 68.4-28.3z"/>
    </g>
    <g clip-path="url(#c)">
        <path fill="#CBCBCB" d="M715.3 678.3v-15.4c32.7 0 63.5-12.7 86.6-35.8 23.1-23.1 35.8-53.8 35.8-86.6h15.4c0 36.8-14.3 71.4-40.3 97.4-26 26-60.6 40.4-97.5 40.4z"/>
        <path fill="#CBCBCB" d="M715.3 657.8v-15.4c56.2 0 101.9-45.7 101.9-101.9h15.4c0 64.7-52.6 117.3-117.3 117.3z"/>
        <path fill="#CBCBCB" d="M715.3 637.2v-15.4c21.8 0 42.2-8.4 57.5-23.8 15.3-15.3 23.8-35.8 23.8-57.5H812c0 25.9-10 50.2-28.3 68.4-18.2 18.2-42.5 28.3-68.4 28.3z"/>
    </g>
    <g clip-path="url(#c)">
        <path fill="#FFF" d="M224.8 719.4V704c32.7 0 63.5-12.7 86.6-35.8 23.1-23.1 35.8-53.8 35.8-86.6h15.4c0 36.8-14.3 71.4-40.3 97.4-26 26.1-60.6 40.4-97.5 40.4z"/>
        <path fill="#FFF" d="M224.8 699v-15.4c56.2 0 101.9-45.7 101.9-101.9h15.4c0 64.6-52.6 117.3-117.3 117.3z"/>
        <path fill="#FFF" d="M224.8 678.3V663c21.8 0 42.2-8.4 57.5-23.8 15.3-15.3 23.8-35.8 23.8-57.5h15.4c0 25.9-10 50.2-28.3 68.4-18.2 18.2-42.5 28.2-68.4 28.2z"/>
    </g>
    <g clip-path="url(#c)">
        <path fill="#FFF" d="M443.9 663v15.4c-32.7 0-63.5 12.7-86.6 35.8-23.1 23.1-35.8 53.8-35.8 86.6h-15.4c0-36.8 14.3-71.4 40.3-97.4 26.1-26.1 60.7-40.4 97.5-40.4z"/>
        <path fill="#FFF" d="M443.9 683.4v15.4c-56.2 0-101.9 45.7-101.9 101.9h-15.4c0-64.7 52.7-117.3 117.3-117.3z"/>
        <path fill="#FFF" d="M443.9 704.1v15.4c-21.8 0-42.2 8.4-57.5 23.8-15.3 15.3-23.8 35.8-23.8 57.5h-15.4c0-25.9 10-50.2 28.3-68.4 18.3-18.3 42.5-28.3 68.4-28.3z"/>
    </g>
    <g clip-path="url(#c)">
        <path fill="#FFF" d="M362.6 800.7h-15.4c0-32.7-12.7-63.5-35.8-86.6-23.1-23.1-53.8-35.8-86.6-35.8V663c36.8 0 71.4 14.3 97.4 40.3 26 26 40.4 60.6 40.4 97.4z"/>
        <path fill="#FFF" d="M342.1 800.7h-15.4c0-56.2-45.7-101.9-101.9-101.9v-15.4c64.7 0 117.3 52.6 117.3 117.3z"/>
        <path fill="#FFF" d="M321.5 800.7h-15.4c0-21.8-8.4-42.2-23.8-57.5-15.3-15.3-35.8-23.8-57.5-23.8V704c25.9 0 50.2 10 68.4 28.3 18.2 18.3 28.3 42.5 28.3 68.4z"/>
    </g>
    <g clip-path="url(#c)">
        <path fill="#FFF" d="M306.2 581.7h15.4c0 32.7 12.7 63.5 35.8 86.6 23.1 23.1 53.8 35.8 86.6 35.8v15.4c-36.8 0-71.4-14.3-97.4-40.3-26.1-26.1-40.4-60.7-40.4-97.5z"/>
        <path fill="#FFF" d="M326.6 581.7H342c0 56.2 45.7 101.9 101.9 101.9V699c-64.6-.1-117.3-52.7-117.3-117.3z"/>
        <path fill="#FFF" d="M347.3 581.7h15.4c0 21.8 8.4 42.2 23.8 57.5 15.3 15.3 35.8 23.8 57.5 23.8v15.4c-25.9 0-50.2-10-68.4-28.3-18.3-18.3-28.3-42.6-28.3-68.4z"/>
    </g>
    <g clip-path="url(#c)">
        <path fill="#4D4D4D" d="M991.5 576.4h15.4c0-32.7 12.7-63.5 35.8-86.6 23.1-23.1 53.8-35.8 86.6-35.8v-15.4c-36.8 0-71.4 14.3-97.4 40.3-26 26.1-40.4 60.7-40.4 97.5z"/>
        <path fill="#4D4D4D" d="M1012 576.4h15.4c0-56.2 45.7-101.9 101.9-101.9v-15.4c-64.7.1-117.3 52.7-117.3 117.3z"/>
        <path fill="#4D4D4D" d="M1032.6 576.4h15.4c0-21.8 8.4-42.2 23.8-57.5 15.3-15.3 35.8-23.8 57.5-23.8v-15.4c-25.9 0-50.2 10-68.4 28.3-18.2 18.3-28.3 42.6-28.3 68.4z"/>
    </g>
    <g clip-path="url(#c)">
        <path fill="#FFF" d="M362.6 575.9h-15.4c0-32.7-12.7-63.5-35.8-86.6-23.1-23.1-53.8-35.8-86.6-35.8v-15.4c36.8 0 71.4 14.3 97.4 40.3 26 26.1 40.4 60.7 40.4 97.5z"/>
        <path fill="#FFF" d="M342.1 575.9h-15.4c0-56.2-45.7-101.9-101.9-101.9v-15.4c64.7 0 117.3 52.7 117.3 117.3z"/>
        <path fill="#FFF" d="M321.5 575.9h-15.4c0-21.8-8.4-42.2-23.8-57.5-15.3-15.3-35.8-23.8-57.5-23.8v-15.4c25.9 0 50.2 10 68.4 28.3s28.3 42.5 28.3 68.4z"/>
    </g>
    <g clip-path="url(#c)">
        <path fill="#CBCBCB" d="M306.2 356.9h15.4c0 32.7 12.7 63.5 35.8 86.6 23.1 23.1 53.8 35.8 86.6 35.8v15.4c-36.8 0-71.4-14.3-97.4-40.3-26.1-26.1-40.4-60.7-40.4-97.5z"/>
        <path fill="#CBCBCB" d="M326.6 356.9H342c0 56.2 45.7 101.9 101.9 101.9v15.4c-64.6 0-117.3-52.7-117.3-117.3z"/>
        <path fill="#CBCBCB" d="M347.3 356.9h15.4c0 21.8 8.4 42.2 23.8 57.5 15.3 15.3 35.8 23.8 57.5 23.8v15.4c-25.9 0-50.2-10-68.4-28.3-18.3-18.3-28.3-42.5-28.3-68.4z"/>
    </g>
    <g clip-path="url(#c)">
        <path fill="#FFF" d="M224.8 45.1V29.7c32.7 0 63.5-12.7 86.6-35.8 23.1-23.1 35.8-53.8 35.8-86.6h15.4c0 36.8-14.3 71.4-40.3 97.4-26 26.1-60.6 40.4-97.5 40.4z"/>
        <path fill="#FFF" d="M224.8 24.6V9.3c56.2 0 101.9-45.7 101.9-101.9h15.4c0 64.6-52.6 117.2-117.3 117.2z"/>
        <path fill="#FFF" d="M224.8 4v-15.4c21.8 0 42.2-8.4 57.5-23.8 15.3-15.3 23.8-35.8 23.8-57.5h15.4c0 25.9-10 50.2-28.3 68.4C275-6 250.7 4 224.8 4z"/>
    </g>
    <g clip-path="url(#c)">
        <path fill="#FFF" d="M443.9-11.3V4c-32.7 0-63.5 12.7-86.6 35.8-23.1 23.1-35.8 53.8-35.8 86.6h-15.4c0-36.8 14.3-71.4 40.3-97.4 26.1-26 60.7-40.3 97.5-40.3z"/>
        <path fill="#FFF" d="M443.9 9.1v15.4C387.7 24.5 342 70.2 342 126.4h-15.4c0-64.7 52.7-117.3 117.3-117.3z"/>
        <path fill="#FFF" d="M443.9 29.8v15.4c-21.8 0-42.2 8.4-57.5 23.8-15.3 15.3-23.8 35.8-23.8 57.5h-15.4c0-25.9 10-50.2 28.3-68.4 18.3-18.3 42.5-28.3 68.4-28.3z"/>
    </g>
    <g clip-path="url(#c)">
        <path fill="#FFF" d="M224.8 269.9v-15.4c32.7 0 63.5-12.7 86.6-35.8 23.1-23.1 35.8-53.8 35.8-86.6h15.4c0 36.8-14.3 71.4-40.3 97.4-26 26.1-60.6 40.4-97.5 40.4z"/>
        <path fill="#FFF" d="M224.8 249.4V234c56.2 0 101.9-45.7 101.9-101.9h15.4c0 64.7-52.6 117.3-117.3 117.3z"/>
        <path fill="#FFF" d="M224.8 228.8v-15.4c21.8 0 42.2-8.4 57.5-23.8 15.3-15.3 23.8-35.8 23.8-57.5h15.4c0 25.9-10 50.2-28.3 68.4-18.2 18.3-42.5 28.3-68.4 28.3z"/>
    </g>
    <g clip-path="url(#c)">
        <path fill="#CBCBCB" d="M443.9 213.5v15.4c-32.7 0-63.5 12.7-86.6 35.8-23.1 23.1-35.8 53.8-35.8 86.6h-15.4c0-36.8 14.3-71.4 40.3-97.4 26.1-26.1 60.7-40.4 97.5-40.4z"/>
        <path fill="#CBCBCB" d="M443.9 233.9v15.4C387.7 249.3 342 295 342 351.2h-15.4c0-64.7 52.7-117.3 117.3-117.3z"/>
        <path fill="#CBCBCB" d="M443.9 254.5v15.4c-21.8 0-42.2 8.4-57.5 23.8-15.3 15.3-23.8 35.8-23.8 57.5h-15.4c0-25.9 10-50.2 28.3-68.4 18.3-18.2 42.5-28.3 68.4-28.3z"/>
    </g>
    <g clip-path="url(#c)">
        <path fill="#FFF" d="M362.6 351.2h-15.4c0-32.7-12.7-63.5-35.8-86.6-23.1-23.1-53.8-35.8-86.6-35.8v-15.4c36.8 0 71.4 14.3 97.4 40.3 26 26.1 40.4 60.7 40.4 97.5z"/>
        <path fill="#FFF" d="M342.1 351.2h-15.4c0-56.2-45.7-101.9-101.9-101.9v-15.4c64.7 0 117.3 52.6 117.3 117.3z"/>
        <path fill="#FFF" d="M321.5 351.2h-15.4c0-21.8-8.4-42.2-23.8-57.5-15.3-15.3-35.8-23.8-57.5-23.8v-15.4c25.9 0 50.2 10 68.4 28.3 18.2 18.2 28.3 42.5 28.3 68.4z"/>
    </g>
    <g clip-path="url(#c)">
        <path fill="#FFF" d="M306.2 132.2h15.4c0 32.7 12.7 63.5 35.8 86.6 23.1 23.1 53.8 35.8 86.6 35.8V270c-36.8 0-71.4-14.3-97.4-40.3-26.1-26.1-40.4-60.7-40.4-97.5z"/>
        <path fill="#FFF" d="M326.6 132.2H342c0 56.2 45.7 101.9 101.9 101.9v15.4c-64.6-.1-117.3-52.7-117.3-117.3z"/>
        <path fill="#FFF" d="M347.3 132.2h15.4c0 21.8 8.4 42.2 23.8 57.5 15.3 15.3 35.8 23.8 57.5 23.8v15.4c-25.9 0-50.2-10-68.4-28.3-18.3-18.3-28.3-42.6-28.3-68.4z"/>
    </g>
    <g clip-path="url(#c)">
        <path fill="#FFF" d="M362.6 126.4h-15.4c0-32.7-12.7-63.5-35.8-86.6C288.3 16.8 257.6 4 224.8 4v-15.4c36.8 0 71.4 14.3 97.4 40.3 26 26.1 40.4 60.7 40.4 97.5z"/>
        <path fill="#FFF" d="M342.1 126.4h-15.4c0-56.2-45.7-101.9-101.9-101.9V9.1c64.7 0 117.3 52.6 117.3 117.3z"/>
        <path fill="#FFF" d="M321.5 126.4h-15.4c0-21.8-8.4-42.2-23.8-57.5-15.3-15.3-35.8-23.8-57.5-23.8V29.8c25.9 0 50.2 10 68.4 28.3 18.2 18.1 28.3 42.4 28.3 68.3z"/>
    </g>
    <g clip-path="url(#c)">
        <path fill="#FFF" d="M306.2-92.6h15.4c0 32.7 12.7 63.5 35.8 86.6 23.1 23.1 53.8 35.8 86.6 35.8v15.4c-36.8 0-71.4-14.3-97.4-40.3-26.1-26.1-40.4-60.7-40.4-97.5z"/>
        <path fill="#FFF" d="M326.6-92.6H342C342-36.4 387.7 9.3 443.9 9.3v15.4C379.3 24.6 326.6-28 326.6-92.6z"/>
        <path fill="#FFF" d="M347.3-92.6h15.4c0 21.8 8.4 42.2 23.8 57.5 15.3 15.3 35.8 23.8 57.5 23.8V4c-26 0-50.2-10-68.5-28.2-18.2-18.3-28.2-42.6-28.2-68.4z"/>
    </g>
    <g clip-path="url(#c)">
        <path fill="#E5E5E5" d="M449.6 719.4V704c32.7 0 63.5-12.7 86.6-35.8 23.1-23.1 35.8-53.8 35.8-86.6h15.4c0 36.8-14.3 71.4-40.3 97.4-26.1 26.1-60.7 40.4-97.5 40.4z"/>
        <path fill="#E5E5E5" d="M449.6 699v-15.4c56.2 0 101.9-45.7 101.9-101.9h15.4c0 64.6-52.6 117.3-117.3 117.3z"/>
        <path fill="#E5E5E5" d="M449.6 678.3V663c21.8 0 42.2-8.4 57.5-23.8 15.3-15.3 23.8-35.8 23.8-57.5h15.4c0 25.9-10 50.2-28.3 68.4-18.2 18.2-42.5 28.2-68.4 28.2z"/>
    </g>
    <g clip-path="url(#c)">
        <path fill="#FFF" d="M587.3 800.7H572c0-32.7-12.7-63.5-35.8-86.6-23.1-23.1-53.8-35.8-86.6-35.8V663c36.8 0 71.4 14.3 97.4 40.3 26 26 40.3 60.6 40.3 97.4z"/>
        <path fill="#FFF" d="M566.9 800.7h-15.4c0-56.2-45.7-101.9-101.9-101.9v-15.4c64.7 0 117.3 52.6 117.3 117.3z"/>
        <path fill="#FFF" d="M546.3 800.7h-15.4c0-21.8-8.4-42.2-23.8-57.5-15.3-15.3-35.8-23.8-57.5-23.8V704c25.9 0 50.2 10 68.4 28.3 18.2 18.3 28.3 42.5 28.3 68.4z"/>
    </g>
    <g clip-path="url(#c)">
        <path fill="#E5E5E5" d="M587.3 575.9H572c0-32.7-12.7-63.5-35.8-86.6-23.1-23.1-53.8-35.8-86.6-35.8v-15.4c36.8 0 71.4 14.3 97.4 40.3 26 26.1 40.3 60.7 40.3 97.5z"/>
        <path fill="#E5E5E5" d="M566.9 575.9h-15.4c0-56.2-45.7-101.9-101.9-101.9v-15.4c64.7 0 117.3 52.7 117.3 117.3z"/>
        <path fill="#E5E5E5" d="M546.2 575.9h-15.4c0-21.8-8.4-42.2-23.8-57.5-15.3-15.3-35.8-23.8-57.5-23.8v-15.4c25.9 0 50.2 10 68.4 28.3 18.3 18.3 28.3 42.5 28.3 68.4z"/>
    </g>
    <g clip-path="url(#c)">
        <path fill="#B2B2B2" d="M449.6 45.1V29.7c32.7 0 63.5-12.7 86.6-35.8 23-23.1 35.8-53.8 35.8-86.5h15.4c0 36.8-14.3 71.4-40.3 97.4-26.1 26-60.7 40.3-97.5 40.3z"/>
        <path fill="#B2B2B2" d="M449.6 24.6V9.3c56.2 0 101.9-45.7 101.9-101.9h15.4c0 64.6-52.6 117.2-117.3 117.2z"/>
        <path fill="#B2B2B2" d="M449.6 4v-15.4c21.8 0 42.2-8.4 57.5-23.8 15.3-15.3 23.8-35.8 23.8-57.5h15.4c0 25.9-10 50.2-28.3 68.4C499.8-6 475.5 4 449.6 4z"/>
    </g>
    <g clip-path="url(#c)">
        <path fill="#989898" d="M449.6 269.9v-15.4c32.7 0 63.5-12.7 86.6-35.8 23.1-23.1 35.8-53.8 35.8-86.6h15.4c0 36.8-14.3 71.4-40.3 97.4-26.1 26.1-60.7 40.4-97.5 40.4z"/>
        <path fill="#989898" d="M449.6 249.4V234c56.2 0 101.9-45.7 101.9-101.9h15.4c0 64.7-52.6 117.3-117.3 117.3z"/>
        <path fill="#989898" d="M449.6 228.8v-15.4c21.8 0 42.2-8.4 57.5-23.8 15.3-15.3 23.8-35.8 23.8-57.5h15.4c0 25.9-10 50.2-28.3 68.4-18.2 18.3-42.5 28.3-68.4 28.3z"/>
    </g>
    <g clip-path="url(#c)">
        <path fill="#FFF" d="M587.3 351.2H572c0-32.7-12.7-63.5-35.8-86.6-23.1-23.1-53.8-35.8-86.6-35.8v-15.4c36.8 0 71.4 14.3 97.4 40.3 26 26.1 40.3 60.7 40.3 97.5z"/>
        <path fill="#FFF" d="M566.9 351.2h-15.4c0-56.2-45.7-101.9-101.9-101.9v-15.4c64.7 0 117.3 52.6 117.3 117.3z"/>
        <path fill="#FFF" d="M546.3 351.2h-15.4c0-21.8-8.4-42.2-23.8-57.5-15.3-15.3-35.8-23.8-57.5-23.8v-15.4c25.9 0 50.2 10 68.4 28.3 18.2 18.2 28.3 42.5 28.3 68.4z"/>
    </g>
    <g clip-path="url(#c)">
        <path fill="#B2B2B2" d="M530.9 126.5h15.4c0-32.7 12.7-63.5 35.8-86.6 23.1-23.1 53.8-35.8 86.6-35.8v-15.4c-36.8 0-71.4 14.3-97.4 40.3-26.1 26.1-40.4 60.7-40.4 97.5z"/>
        <path fill="#B2B2B2" d="M551.4 126.5h15.4c0-56.2 45.7-101.9 101.9-101.9V9.2c-64.7 0-117.3 52.6-117.3 117.3z"/>
        <path fill="#B2B2B2" d="M572 126.5h15.4c0-21.8 8.4-42.2 23.8-57.5 15.3-15.3 35.8-23.8 57.5-23.8V29.9c-25.9 0-50.2 10-68.4 28.3C582 76.3 572 100.6 572 126.5z"/>
    </g>
    <g>
        <text transform="translate(847.967 144)">
            <tspan x="0" y="0" fill="gray" font-family="'DIN-Light'" font-size="72" letter-spacing="-1">0</tspan><tspan x="35.6" y="0" fill="gray" font-family="'DIN-Light'" font-size="72" letter-spacing="7">2</tspan>
        </text>
    </g>
    <g>
        <text transform="translate(852.847 198)">
            <tspan x="0" y="0" fill="#FFF" font-family="'DIN-Bold'" font-size="30" letter-spacing="3">SPOKEHUB</tspan><tspan x="178.3" y="0" fill="#FFF" font-family="'DIN-Light'" font-size="30" letter-spacing="3"> BREAKS </tspan><tspan x="0" y="35" fill="#FFF" font-family="'DIN-Light'" font-size="30" letter-spacing="3">BAD HABITS, CYCLES </tspan><tspan x="0" y="70" fill="#FFF" font-family="'DIN-Light'" font-size="30" letter-spacing="3">AND PATTERNS, </tspan><tspan x="0" y="105" fill="#FFF" font-family="'DIN-Light'" font-size="30" letter-spacing="3">TO CLEAR THE DECKS </tspan><tspan x="0" y="140" fill="#FFF" font-family="'DIN-Light'" font-size="30" letter-spacing="3">FOR NEW THINKING.</tspan>
        </text>
    </g>
</svg>
