<?xml version="1.0" encoding="utf-8"?>
<!-- Generator: Adobe Illustrator 19.1.0, SVG Export Plug-In . SVG Version: 6.00 Build 0)  -->
<svg version="1.1" id="Layer_1" xmlns="http://www.w3.org/2000/svg" xmlns:xlink="http://www.w3.org/1999/xlink" x="0px" y="0px"
	 viewBox="0 41 1280 720" style="enable-background:new 0 41 1280 720;" xml:space="preserve">
<style type="text/css">
	.st0{clip-path:url(#SVGID_2_);}
	.st1{fill:none;stroke:#000000;stroke-width:2.997;stroke-miterlimit:10;}
	.st2{fill:none;stroke:#0A0A0A;stroke-width:11.613;stroke-miterlimit:10;}
	.st3{fill:none;stroke:#131313;stroke-width:20.23;stroke-miterlimit:10;}
	.st4{fill:none;stroke:#1D1D1D;stroke-width:28.846;stroke-miterlimit:10;}
	.st5{fill:none;stroke:#272727;stroke-width:37.463;stroke-miterlimit:10;}
	.st6{fill:none;stroke:#303030;stroke-width:46.079;stroke-miterlimit:10;}
	.st7{fill:none;stroke:#3A3A3A;stroke-width:54.695;stroke-miterlimit:10;}
	.st8{fill:none;stroke:#434343;stroke-width:63.312;stroke-miterlimit:10;}
	.st9{fill:none;stroke:#4D4D4D;stroke-width:71.928;stroke-miterlimit:10;}
	.st10{clip-path:url(#SVGID_4_);}
	.st11{fill:none;stroke:#666666;stroke-width:71.928;stroke-miterlimit:10;}
	.st12{fill:none;stroke:#797979;stroke-width:73.437;stroke-miterlimit:10;}
	.st13{fill:none;stroke:#8C8C8C;stroke-width:74.946;stroke-miterlimit:10;}
	.st14{fill:none;stroke:#9F9F9F;stroke-width:76.455;stroke-miterlimit:10;}
	.st15{fill:none;stroke:#B3B3B3;stroke-width:77.964;stroke-miterlimit:10;}
	.st16{fill:none;stroke:#C6C6C6;stroke-width:79.473;stroke-miterlimit:10;}
	.st17{fill:none;stroke:#D9D9D9;stroke-width:80.982;stroke-miterlimit:10;}
	.st18{fill:none;stroke:#ECECEC;stroke-width:82.491;stroke-miterlimit:10;}
	.st19{fill:none;stroke:#FFFFFF;stroke-width:84;stroke-miterlimit:10;}
	.st20{font-family:'DIN-Bold';}
	.st21{font-size:30px;}
	.st22{letter-spacing:3;}
	.st23{font-family:'DIN-Light';}
	.st24{font-size:72px;}
</style>
<path d="M0,40.8h1280v720H0V40.8z"/>
<g>
	<defs>
		<rect id="SVGID_1_" y="42.7" width="1280" height="718.6"/>
	</defs>
	<clipPath id="SVGID_2_">
		<use xlink:href="#SVGID_1_"  style="overflow:visible;"/>
	</clipPath>
	<g class="st0">
		<path class="st1" d="M264.3,533.5L1362.1,90.8"/>
		<path class="st2" d="M277,403.1l1056.2-274.6"/>
		<path class="st3" d="M289.7,272.8l1014.6-106.6"/>
		<path class="st4" d="M302.4,142.4l973,61.5"/>
		<path class="st5" d="M315.1,12.1l931.4,229.5"/>
		<path class="st6" d="M327.8-118.3l889.8,397.6"/>
		<path class="st7" d="M340.5-248.7L1188.7,317"/>
		<path class="st8" d="M353.2-379l806.6,733.8"/>
		<path class="st9" d="M365.8-509.4l765.1,901.9"/>
	</g>
</g>
<g>
	<defs>
		<rect id="SVGID_3_" y="42.7" width="1280" height="718.6"/>
	</defs>
	<clipPath id="SVGID_4_">
		<use xlink:href="#SVGID_3_"  style="overflow:visible;"/>
	</clipPath>
	<g class="st10">
		<path class="st11" d="M795.5-51l873,798.1"/>
		<path class="st12" d="M842.7,5.7l627.9,687.4"/>
		<path class="st13" d="M889.8,62.5L1272.6,639"/>
		<path class="st14" d="M937,119.2l137.7,465.7"/>
		<path class="st15" d="M984.2,176L876.7,530.8"/>
		<path class="st16" d="M1031.4,232.7L678.8,476.8"/>
		<path class="st17" d="M1078.6,289.5L480.8,422.7"/>
		<path class="st18" d="M1125.8,346.2l-843,22.4"/>
		<path class="st19" d="M1172.9,403l-1088-88.5"/>
	</g>
</g>
<g>
	<text transform="matrix(0.9962 8.715574e-02 -8.715574e-02 0.9962 235.3853 322.708)" class="st20 st21 st22">SPOKEHUB</text>
	<text transform="matrix(0.9962 8.715574e-02 -8.715574e-02 0.9962 413.0068 338.2479)" class="st23 st21 st22"> REDRESSES IMBALANCES; IN DISCUSSION, </text>
	<text transform="matrix(0.9962 8.715574e-02 -8.715574e-02 0.9962 232.6834 353.5901)" class="st23 st21 st22">IN DESIGN AND IN SOCIETY.</text>
</g>
<g>
	<text transform="matrix(0.9962 8.715574e-02 -8.715574e-02 0.9962 118.7405 346.8752)" class="st23 st24">04</text>
</g>
</svg>
